<svg width="311" height="61" viewBox="0 0 311 61" fill="none" xmlns="http://www.w3.org/2000/svg">
<path d="M281.422 0.5H0.5V58.5H281.422C281.422 58.5 310.5 55.8637 310.5 30.0273C310.5 4.19095 281.422 0.5 281.422 0.5Z" fill="black" stroke="black"/>
<path d="M56.0469 4.875H57.6094V13.4453C57.6094 14.4766 57.8438 15.0833 58.3125 15.2656C58.4688 15.3281 58.6354 15.3594 58.8125 15.3594C58.9896 15.3594 59.1484 15.3385 59.2891 15.2969V16.5L59 16.5312C58.9062 16.5417 58.8151 16.5469 58.7266 16.5469C57.7266 16.5469 57.0052 16.2188 56.5625 15.5625C56.2188 15.0469 56.0469 14.3438 56.0469 13.4531V4.875ZM60.5312 12.4531C60.5312 11.1875 60.9349 10.1615 61.7422 9.375C62.4974 8.64062 63.4323 8.27344 64.5469 8.27344C65.6406 8.27344 66.5547 8.64062 67.2891 9.375C68.0703 10.1562 68.4609 11.1823 68.4609 12.4531C68.4609 13.7188 68.0677 14.7396 67.2812 15.5156C66.5365 16.2552 65.6224 16.625 64.5391 16.625C63.4401 16.625 62.5078 16.2552 61.7422 15.5156C60.9349 14.7396 60.5312 13.7188 60.5312 12.4531ZM62.1562 12.4531C62.1562 13.7865 62.5833 14.6927 63.4375 15.1719C63.7396 15.3385 64.1016 15.4219 64.5234 15.4219C64.9453 15.4219 65.3021 15.3385 65.5938 15.1719C65.8854 15 66.125 14.776 66.3125 14.5C66.6615 13.9688 66.8359 13.2865 66.8359 12.4531C66.8359 11.1302 66.4167 10.224 65.5781 9.73438C65.2865 9.5625 64.9375 9.47656 64.5312 9.47656C64.125 9.47656 63.7708 9.5625 63.4688 9.73438C63.1719 9.90104 62.9271 10.1224 62.7344 10.3984C62.349 10.9401 62.1562 11.625 62.1562 12.4531ZM76.1719 16.4766C75.8594 16.5755 75.3177 16.625 74.5469 16.625C73.776 16.625 73.1198 16.5312 72.5781 16.3438C72.0417 16.1562 71.5833 15.8802 71.2031 15.5156C70.4167 14.7604 70.0234 13.7135 70.0234 12.375C70.0234 11.0781 70.4948 10.0573 71.4375 9.3125C72.2812 8.64583 73.3177 8.3125 74.5469 8.3125C75.3073 8.3125 75.8281 8.33854 76.1094 8.39062V9.78125C75.6719 9.64062 75.1719 9.57031 74.6094 9.57031C74.0521 9.57031 73.5885 9.64844 73.2188 9.80469C72.849 9.95573 72.5469 10.1615 72.3125 10.4219C71.8698 10.9167 71.6484 11.5677 71.6484 12.375C71.6484 13.7396 72.1406 14.6484 73.125 15.1016C73.474 15.263 73.8151 15.3438 74.1484 15.3438C74.4818 15.3438 74.737 15.3359 74.9141 15.3203C75.0964 15.3047 75.2682 15.2839 75.4297 15.2578C75.7734 15.2005 76.0208 15.1406 76.1719 15.0781V16.4766ZM78.7266 15.0625C78.5547 14.7656 78.4167 14.4167 78.3125 14.0156C78.2135 13.6146 78.1641 13.0911 78.1641 12.4453C78.1641 11.7995 78.3021 11.2057 78.5781 10.6641C78.8594 10.1172 79.224 9.66927 79.6719 9.32031C80.5417 8.64844 81.6224 8.3125 82.9141 8.3125C83.5859 8.3125 84.0938 8.32812 84.4375 8.35938C84.4375 8.35938 84.6901 8.38542 85.1953 8.4375V16.5H83.7891L83.7266 15.5703C83.4141 15.987 82.9375 16.2969 82.2969 16.5C82.0521 16.5781 81.7995 16.6172 81.5391 16.6172C81.2839 16.6172 81.0312 16.5911 80.7812 16.5391C80.5312 16.487 80.2812 16.401 80.0312 16.2812C79.7865 16.1615 79.5521 16.0026 79.3281 15.8047C79.1042 15.6016 78.9036 15.3542 78.7266 15.0625ZM83.6328 9.58594C83.2995 9.54427 82.9661 9.52344 82.6328 9.52344C82.3047 9.52344 81.9531 9.58333 81.5781 9.70312C81.2031 9.81771 80.8828 10 80.6172 10.25C80.0651 10.7708 79.7891 11.5651 79.7891 12.6328C79.7891 13.6432 80.026 14.3906 80.5 14.875C80.8594 15.2344 81.2917 15.4141 81.7969 15.4141C82.4479 15.4141 82.9844 15.1771 83.4062 14.7031C83.5104 14.5833 83.5859 14.4766 83.6328 14.3828V9.58594ZM90.5938 15.2656C90.7656 15.3281 91.026 15.3594 91.375 15.3594C91.724 15.3594 92.0156 15.3177 92.25 15.2344V16.4844C92.1406 16.5104 91.9818 16.526 91.7734 16.5312L91.2812 16.5469C91.1719 16.5469 91.0885 16.5469 91.0312 16.5469C90.026 16.5469 89.2839 16.2188 88.8047 15.5625C88.4193 15.0312 88.2266 14.3281 88.2266 13.4531V9.63281H87.0703V8.89844L88.2266 8.4375L88.6016 6.4375H89.7891V8.4375H92.2891V9.63281H89.7891V13.4453C89.7891 14.4661 90.0573 15.0729 90.5938 15.2656ZM98.1328 16.625C95.1849 16.625 93.7109 15.1849 93.7109 12.3047C93.7109 11.0651 94.1198 10.0729 94.9375 9.32812C95.6719 8.65104 96.5104 8.3125 97.4531 8.3125C98.4792 8.3125 99.2812 8.65625 99.8594 9.34375C100.396 9.98438 100.664 10.8411 100.664 11.9141V12.5234H95.3359C95.3359 13.9974 95.9375 14.8984 97.1406 15.2266C97.4271 15.3047 97.8672 15.3438 98.4609 15.3438C99.0599 15.3438 99.6458 15.263 100.219 15.1016V16.4219C99.6458 16.5573 98.9505 16.625 98.1328 16.625ZM99.1016 11.375C99.1016 10.875 98.9635 10.4531 98.6875 10.1094C98.3646 9.71354 97.9193 9.51562 97.3516 9.51562C96.7526 9.51562 96.2656 9.70573 95.8906 10.0859C95.5469 10.4401 95.375 10.8698 95.375 11.375H99.1016ZM103.602 9.32031C104.055 8.97135 104.562 8.71615 105.125 8.55469C105.693 8.39323 106.188 8.3125 106.609 8.3125C107.031 8.3125 107.357 8.32292 107.586 8.34375V4.875H109.141V16.5H107.742L107.68 15.5703C107.362 15.9922 106.88 16.3047 106.234 16.5078C105.984 16.5859 105.729 16.625 105.469 16.625C105.214 16.625 104.961 16.599 104.711 16.5469C104.461 16.4948 104.211 16.4089 103.961 16.2891C103.716 16.1641 103.482 16.0026 103.258 15.8047C103.034 15.6016 102.833 15.3542 102.656 15.0625C102.281 14.4219 102.094 13.6641 102.094 12.7891C102.094 11.9141 102.232 11.2057 102.508 10.6641C102.789 10.1172 103.154 9.66927 103.602 9.32031ZM104.547 10.25C104.281 10.5 104.076 10.8229 103.93 11.2188C103.789 11.6094 103.719 12.0859 103.719 12.6484C103.719 13.2057 103.786 13.6667 103.922 14.0312C104.057 14.3906 104.227 14.6719 104.43 14.875C104.789 15.2396 105.221 15.4219 105.727 15.4219C106.378 15.4219 106.917 15.1823 107.344 14.7031C107.453 14.5833 107.531 14.4766 107.578 14.3828V9.57812L107.422 9.5625C107.182 9.53125 106.896 9.51562 106.562 9.51562C106.234 9.51562 105.883 9.57552 105.508 9.69531C105.133 9.8099 104.812 9.99479 104.547 10.25ZM57.5312 26.0938C57.5312 26.3906 57.4323 26.6198 57.2344 26.7812C57.0417 26.9375 56.7995 27.0156 56.5078 27.0156C56.2161 27.0156 55.974 26.9375 55.7812 26.7812C55.5938 26.6198 55.5 26.3906 55.5 26.0938C55.5 25.7917 55.5938 25.5625 55.7812 25.4062C55.974 25.25 56.2161 25.1719 56.5078 25.1719C56.7995 25.1719 57.0417 25.25 57.2344 25.4062C57.4323 25.5625 57.5312 25.7917 57.5312 26.0938ZM55.7031 28.4375H57.2656V36.5H55.7031V28.4375ZM63.3594 29.6562C62.5833 29.6562 61.8932 29.9193 61.2891 30.4453V36.5H59.7266V28.4375H61.1719L61.2812 29.3125C62.1302 28.6458 63.0078 28.3125 63.9141 28.3125C64.8724 28.3125 65.5755 28.599 66.0234 29.1719C66.4922 29.776 66.7266 30.75 66.7266 32.0938V36.5H65.1641V32.0938C65.1641 30.8021 64.8151 30.0312 64.1172 29.7812C63.8932 29.6979 63.6406 29.6562 63.3594 29.6562ZM55.7188 45.625H57.2812V56.5H55.7188V45.625ZM63.3438 49.6562C62.5677 49.6562 61.8776 49.9193 61.2734 50.4453V56.5H59.7109V48.4375H61.1562L61.2656 49.3125C62.1146 48.6458 62.9922 48.3125 63.8984 48.3125C64.8568 48.3125 65.5599 48.599 66.0078 49.1719C66.4766 49.776 66.7109 50.75 66.7109 52.0938V56.5H65.1484V52.0938C65.1484 50.8021 64.7995 50.0312 64.1016 49.7812C63.8776 49.6979 63.625 49.6562 63.3438 49.6562ZM70.2734 49.3203C70.7266 48.9714 71.2344 48.7161 71.7969 48.5547C72.3646 48.3932 72.8594 48.3125 73.2812 48.3125C73.7031 48.3125 74.0286 48.3229 74.2578 48.3438V44.875H75.8125V56.5H74.4141L74.3516 55.5703C74.0339 55.9922 73.5521 56.3047 72.9062 56.5078C72.6562 56.5859 72.401 56.625 72.1406 56.625C71.8854 56.625 71.6328 56.599 71.3828 56.5469C71.1328 56.4948 70.8828 56.4089 70.6328 56.2891C70.388 56.1641 70.1536 56.0026 69.9297 55.8047C69.7057 55.6016 69.5052 55.3542 69.3281 55.0625C68.9531 54.4219 68.7656 53.6641 68.7656 52.7891C68.7656 51.9141 68.9036 51.2057 69.1797 50.6641C69.4609 50.1172 69.8255 49.6693 70.2734 49.3203ZM71.2188 50.25C70.9531 50.5 70.7474 50.8229 70.6016 51.2188C70.4609 51.6094 70.3906 52.0859 70.3906 52.6484C70.3906 53.2057 70.4583 53.6667 70.5938 54.0312C70.7292 54.3906 70.8984 54.6719 71.1016 54.875C71.4609 55.2396 71.8932 55.4219 72.3984 55.4219C73.0495 55.4219 73.5885 55.1823 74.0156 54.7031C74.125 54.5833 74.2031 54.4766 74.25 54.3828V49.5781L74.0938 49.5625C73.8542 49.5312 73.5677 49.5156 73.2344 49.5156C72.9062 49.5156 72.5547 49.5755 72.1797 49.6953C71.8047 49.8099 71.4844 49.9948 71.2188 50.25ZM80.2031 46.0938C80.2031 46.3906 80.1042 46.6198 79.9062 46.7812C79.7135 46.9375 79.4714 47.0156 79.1797 47.0156C78.888 47.0156 78.6458 46.9375 78.4531 46.7812C78.2656 46.6198 78.1719 46.3906 78.1719 46.0938C78.1719 45.7917 78.2656 45.5625 78.4531 45.4062C78.6458 45.25 78.888 45.1719 79.1797 45.1719C79.4714 45.1719 79.7135 45.25 79.9062 45.4062C80.1042 45.5625 80.2031 45.7917 80.2031 46.0938ZM78.375 48.4375H79.9375V56.5H78.375V48.4375ZM82.7578 55.0625C82.5859 54.7656 82.4479 54.4167 82.3438 54.0156C82.2448 53.6146 82.1953 53.0911 82.1953 52.4453C82.1953 51.7995 82.3333 51.2057 82.6094 50.6641C82.8906 50.1172 83.2552 49.6693 83.7031 49.3203C84.5729 48.6484 85.6536 48.3125 86.9453 48.3125C87.6172 48.3125 88.125 48.3281 88.4688 48.3594C88.4688 48.3594 88.7214 48.3854 89.2266 48.4375V56.5H87.8203L87.7578 55.5703C87.4453 55.987 86.9688 56.2969 86.3281 56.5C86.0833 56.5781 85.8307 56.6172 85.5703 56.6172C85.3151 56.6172 85.0625 56.5911 84.8125 56.5391C84.5625 56.487 84.3125 56.401 84.0625 56.2812C83.8177 56.1615 83.5833 56.0026 83.3594 55.8047C83.1354 55.6016 82.9349 55.3542 82.7578 55.0625ZM87.6641 49.5859C87.3307 49.5443 86.9974 49.5234 86.6641 49.5234C86.3359 49.5234 85.9844 49.5833 85.6094 49.7031C85.2344 49.8177 84.9141 50 84.6484 50.25C84.0964 50.7708 83.8203 51.5651 83.8203 52.6328C83.8203 53.6432 84.0573 54.3906 84.5312 54.875C84.8906 55.2344 85.3229 55.4141 85.8281 55.4141C86.4792 55.4141 87.0156 55.1771 87.4375 54.7031C87.5417 54.5833 87.6172 54.4766 87.6641 54.3828V49.5859Z" fill="white"/>
<ellipse cx="278.5" cy="29.5" rx="22" ry="21" fill="#B3B3B3"/>
</svg>
